{
	"asset":{
		"generator":"Khronos glTF Blender I/O v4.1.62",
		"version":"2.0"
	},
	"scene":0,
	"scenes":[
		{
			"name":"Scene",
			"nodes":[
				0,
				1,
				2,
				3
			]
		}
	],
	"nodes":[
		{
			"mesh":0,
			"name":"Cylinder",
			"scale":[
				0.10000002384185791,
				0.6070718169212341,
				0.10000002384185791
			],
			"translation":[
				0,
				0.11881537735462189,
				0
			]
		},
		{
			"mesh":1,
			"name":"Cone",
			"rotation":[
				-1,
				0,
				0,
				1.6292068494294654e-07
			],
			"scale":[
				0.20000004768371582,
				0.20000004768371582,
				0.20000004768371582
			],
			"translation":[
				0,
				-0.6968861222267151,
				0
			]
		},
		{
			"mesh":2,
			"name":"Cylinder.001"
		},
		{
			"mesh":3,
			"name":"Cube"
		}
	],
	"materials":[
		{
			"doubleSided":true,
			"name":"Material.001",
			"pbrMetallicRoughness":{
				"baseColorFactor":[
					0.05336862802505493,
					0.8014757037162781,
					0.5840678215026855,
					1
				],
				"metallicFactor":0,
				"roughnessFactor":0
			}
		}
	],
	"meshes":[
		{
			"name":"Cylinder",
			"primitives":[
				{
					"attributes":{
						"POSITION":0,
						"NORMAL":1,
						"TEXCOORD_0":2
					},
					"indices":3,
					"material":0
				}
			]
		},
		{
			"name":"Cone",
			"primitives":[
				{
					"attributes":{
						"POSITION":4,
						"NORMAL":5,
						"TEXCOORD_0":6
					},
					"indices":7,
					"material":0
				}
			]
		},
		{
			"name":"Cylinder.002",
			"primitives":[
				{
					"attributes":{
						"POSITION":8,
						"NORMAL":9,
						"TEXCOORD_0":10
					},
					"indices":11,
					"material":0
				}
			]
		},
		{
			"name":"Cube",
			"primitives":[
				{
					"attributes":{
						"POSITION":12,
						"NORMAL":13,
						"TEXCOORD_0":14
					},
					"indices":15,
					"material":0
				}
			]
		}
	],
	"accessors":[
		{
			"bufferView":0,
			"componentType":5126,
			"count":130,
			"max":[
				1,
				1,
				1
			],
			"min":[
				-1,
				-1,
				-1
			],
			"type":"VEC3"
		},
		{
			"bufferView":1,
			"componentType":5126,
			"count":130,
			"type":"VEC3"
		},
		{
			"bufferView":2,
			"componentType":5126,
			"count":130,
			"type":"VEC2"
		},
		{
			"bufferView":3,
			"componentType":5123,
			"count":372,
			"type":"SCALAR"
		},
		{
			"bufferView":4,
			"componentType":5126,
			"count":65,
			"max":[
				1,
				1,
				1
			],
			"min":[
				-1,
				-1,
				-1
			],
			"type":"VEC3"
		},
		{
			"bufferView":5,
			"componentType":5126,
			"count":65,
			"type":"VEC3"
		},
		{
			"bufferView":6,
			"componentType":5126,
			"count":65,
			"type":"VEC2"
		},
		{
			"bufferView":7,
			"componentType":5123,
			"count":186,
			"type":"SCALAR"
		},
		{
			"bufferView":8,
			"componentType":5126,
			"count":576,
			"max":[
				1,
				1,
				1
			],
			"min":[
				-1,
				-1,
				-1
			],
			"type":"VEC3"
		},
		{
			"bufferView":9,
			"componentType":5126,
			"count":576,
			"type":"VEC3"
		},
		{
			"bufferView":10,
			"componentType":5126,
			"count":576,
			"type":"VEC2"
		},
		{
			"bufferView":11,
			"componentType":5123,
			"count":1140,
			"type":"SCALAR"
		},
		{
			"bufferView":12,
			"componentType":5126,
			"count":24,
			"max":[
				1,
				1,
				1
			],
			"min":[
				-1,
				-1,
				-1
			],
			"type":"VEC3"
		},
		{
			"bufferView":13,
			"componentType":5126,
			"count":24,
			"type":"VEC3"
		},
		{
			"bufferView":14,
			"componentType":5126,
			"count":24,
			"type":"VEC2"
		},
		{
			"bufferView":15,
			"componentType":5123,
			"count":36,
			"type":"SCALAR"
		}
	],
	"bufferViews":[
		{
			"buffer":0,
			"byteLength":1560,
			"byteOffset":0,
			"target":34962
		},
		{
			"buffer":0,
			"byteLength":1560,
			"byteOffset":1560,
			"target":34962
		},
		{
			"buffer":0,
			"byteLength":1040,
			"byteOffset":3120,
			"target":34962
		},
		{
			"buffer":0,
			"byteLength":744,
			"byteOffset":4160,
			"target":34963
		},
		{
			"buffer":0,
			"byteLength":780,
			"byteOffset":4904,
			"target":34962
		},
		{
			"buffer":0,
			"byteLength":780,
			"byteOffset":5684,
			"target":34962
		},
		{
			"buffer":0,
			"byteLength":520,
			"byteOffset":6464,
			"target":34962
		},
		{
			"buffer":0,
			"byteLength":372,
			"byteOffset":6984,
			"target":34963
		},
		{
			"buffer":0,
			"byteLength":6912,
			"byteOffset":7356,
			"target":34962
		},
		{
			"buffer":0,
			"byteLength":6912,
			"byteOffset":14268,
			"target":34962
		},
		{
			"buffer":0,
			"byteLength":4608,
			"byteOffset":21180,
			"target":34962
		},
		{
			"buffer":0,
			"byteLength":2280,
			"byteOffset":25788,
			"target":34963
		},
		{
			"buffer":0,
			"byteLength":288,
			"byteOffset":28068,
			"target":34962
		},
		{
			"buffer":0,
			"byteLength":288,
			"byteOffset":28356,
			"target":34962
		},
		{
			"buffer":0,
			"byteLength":192,
			"byteOffset":28644,
			"target":34962
		},
		{
			"buffer":0,
			"byteLength":72,
			"byteOffset":28836,
			"target":34963
		}
	],
	"buffers":[
		{
			"byteLength":28908,
			"uri":"CubeBlue.bin"
		}
	]
}
