{"asset":{"version":"2.0","generator":"Unity 2022.3.21f1 glTFast 6.2.0"},"nodes":[{"name":"[Interactable] 006","mesh":0,"translation":[0.0197000634,0,-0.009249952],"rotation":[-6.17225737E-09,-2.10734186E-08,-0.707106769,0.7071069]},{"name":"[Interactable] 005","children":[0],"mesh":1,"translation":[0,0.169999912,0],"rotation":[3.59745762E-08,2.10734186E-08,0.7071067,0.7071068]},{"name":"[Interactable] 004","children":[1],"mesh":2,"translation":[-0.0650000051,0,-0.0325],"rotation":[0,1.49011612E-08,-0.7071068,-0.7071068]},{"name":"[Interactable] 003","children":[2],"mesh":3,"translation":[-0.0120000634,0,-0.221000046]},{"name":"[Interactable] 002","children":[3],"mesh":4,"translation":[0,0.065,0],"rotation":[0.5,-0.5,0.5,0.5]},{"name":"[Interactable] 001","children":[4],"mesh":5,"translation":[0,0.1013,0],"rotation":[-1.07890286E-16,-0.7071068,-9.34311354E-17,0.707106769]},{"name":"Base","children":[5],"mesh":6},{"name":"NED 2 - VL (STEP)","children":[6]}],"buffers":[{"uri":"NED 2 - DT configured.bin","byteLength":3749712}],"bufferViews":[{"buffer":0,"byteLength":28872},{"buffer":0,"byteLength":37872,"byteOffset":28872},{"buffer":0,"byteLength":86136,"byteOffset":66744},{"buffer":0,"byteLength":25344,"byteOffset":152880},{"buffer":0,"byteLength":72384,"byteOffset":178224},{"buffer":0,"byteLength":66000,"byteOffset":250608},{"buffer":0,"byteLength":1178232,"byteOffset":316608},{"buffer":0,"byteLength":55248,"byteOffset":1494840,"byteStride":24},{"buffer":0,"byteLength":68856,"byteOffset":1550088,"byteStride":24},{"buffer":0,"byteLength":146184,"byteOffset":1618944,"byteStride":24},{"buffer":0,"byteLength":47832,"byteOffset":1765128,"byteStride":24},{"buffer":0,"byteLength":119904,"byteOffset":1812960,"byteStride":24},{"buffer":0,"byteLength":128280,"byteOffset":1932864,"byteStride":24},{"buffer":0,"byteLength":1688568,"byteOffset":2061144,"byteStride":24}],"accessors":[{"bufferView":7,"componentType":5126,"count":2302,"type":"VEC3","max":[0.0105,0.0285,0.0105],"min":[-0.0105,-0.0065,-0.0105]},{"bufferView":7,"componentType":5126,"count":2302,"type":"VEC3","byteOffset":12},{"bufferView":0,"componentType":5125,"count":7218,"type":"SCALAR"},{"bufferView":8,"componentType":5126,"count":2869,"type":"VEC3","max":[0.0197,0.0230000019,0.018],"min":[-0.0490000024,-0.0295,-0.01825]},{"bufferView":8,"componentType":5126,"count":2869,"type":"VEC3","byteOffset":12},{"bufferView":1,"componentType":5125,"count":9468,"type":"SCALAR"},{"bufferView":9,"componentType":5126,"count":6091,"type":"VEC3","max":[0.032,0.195,0.028],"min":[-0.06,-0.018,-0.028]},{"bufferView":9,"componentType":5126,"count":6091,"type":"VEC3","byteOffset":12},{"bufferView":2,"componentType":5125,"count":21534,"type":"SCALAR"},{"bufferView":10,"componentType":5126,"count":1993,"type":"VEC3","max":[0.036,0.031,0.0359921828],"min":[-0.065,-0.031,-0.06775]},{"bufferView":10,"componentType":5126,"count":1993,"type":"VEC3","byteOffset":12},{"bufferView":3,"componentType":5125,"count":6336,"type":"SCALAR"},{"bufferView":11,"componentType":5126,"count":4996,"type":"VEC3","max":[0.0471,0.0701999962,0.0471000075],"min":[-0.056,-0.0505,-0.265]},{"bufferView":11,"componentType":5126,"count":4996,"type":"VEC3","byteOffset":12},{"bufferView":4,"componentType":5125,"count":18096,"type":"SCALAR"},{"bufferView":12,"componentType":5126,"count":5345,"type":"VEC3","max":[0.06605,0.112900004,0.109199993],"min":[-0.0727,-0.004999999,-0.06605]},{"bufferView":12,"componentType":5126,"count":5345,"type":"VEC3","byteOffset":12},{"bufferView":5,"componentType":5125,"count":16500,"type":"SCALAR"},{"bufferView":13,"componentType":5126,"count":70357,"type":"VEC3","max":[0.0926817656,0.0998,0.0908],"min":[-0.09498036,0,-0.0908]},{"bufferView":13,"componentType":5126,"count":70357,"type":"VEC3","byteOffset":12},{"bufferView":6,"componentType":5125,"count":294558,"type":"SCALAR"}],"materials":[{"name":"Asset Green","pbrMetallicRoughness":{"baseColorFactor":[0.248803228,0.8301887,0.0352438428,0.270588249],"metallicFactor":0,"roughnessFactor":0.5},"alphaMode":"BLEND"}],"meshes":[{"name":"7- HAND - NED 2 VL (URDF)","primitives":[{"attributes":{"POSITION":0,"NORMAL":1},"indices":2,"material":0}]},{"name":"6- WRIST - NED 2 VL (URDF)","primitives":[{"attributes":{"POSITION":3,"NORMAL":4},"indices":5,"material":0}]},{"name":"5- FOREARM - NED 2 VL (URDF)","primitives":[{"attributes":{"POSITION":6,"NORMAL":7},"indices":8,"material":0}]},{"name":"4- ELBOW - NED 2 VL (URDF)","primitives":[{"attributes":{"POSITION":9,"NORMAL":10},"indices":11,"material":0}]},{"name":"3- ARM - NED 2 VL (URDF)","primitives":[{"attributes":{"POSITION":12,"NORMAL":13},"indices":14,"material":0}]},{"name":"2- SHOULDER - NED 2 VL (URDF)","primitives":[{"attributes":{"POSITION":15,"NORMAL":16},"indices":17,"material":0}]},{"name":"1- BASE - NED 2 VL (URDF)","primitives":[{"attributes":{"POSITION":18,"NORMAL":19},"indices":20,"material":0}]}],"scene":0,"scenes":[{"name":"NED 2 - VL (STEP)","nodes":[7]}]}